<svg width="217.401" height="70.906" viewBox="0 0 217.401 70.906" xmlns="http://www.w3.org/2000/svg">
    <g id="svgGroup" stroke-linecap="round" fill-rule="evenodd" font-size="9pt" stroke="#000" stroke-width="0.25mm"
       fill="#000" style="stroke:#000;stroke-width:0.25mm;fill:#000">
        <path d="M 176.2 48.702 L 162.8 48.702 A 22.582 22.582 0 0 0 165.342 59.099 C 169.504 66.813 178.466 70.708 190.023 70.895 A 54.342 54.342 0 0 0 190.9 70.902 C 204.332 70.902 214.385 66.02 216.828 55.216 A 24.513 24.513 0 0 0 217.4 49.802 C 217.4 45.262 216.327 41.958 214.564 39.463 A 17.75 17.75 0 0 0 207 33.702 A 51.246 51.246 0 0 0 201.77 31.744 C 199.644 31.061 197.316 30.409 194.874 29.774 A 417.778 417.778 0 0 0 187.3 27.902 C 182.733 26.791 179.88 25.452 178.365 23.602 A 6.192 6.192 0 0 1 177 19.502 A 6.659 6.659 0 0 1 180.98 13.178 C 182.929 12.21 185.579 11.702 188.9 11.702 C 196.447 11.702 200.523 14.366 201.781 19.838 A 16.154 16.154 0 0 1 202.1 21.802 L 215.3 21.802 C 214.8 9.102 205.4 0.002 188.6 0.002 A 36.106 36.106 0 0 0 179.43 1.089 C 175.962 2 173.091 3.457 170.816 5.359 A 18.869 18.869 0 0 0 164.3 20.402 A 20.149 20.149 0 0 0 165.082 26.215 C 166.569 31.171 170.13 34.427 175.4 36.802 A 45.73 45.73 0 0 0 180.908 38.818 C 183.751 39.675 186.985 40.436 190.939 41.315 A 1048.026 1048.026 0 0 0 193.6 41.902 C 197.961 42.848 200.582 44.042 202.089 45.528 A 6.255 6.255 0 0 1 203.9 50.302 A 8.278 8.278 0 0 1 198.997 58.135 C 197.735 58.758 196.243 59.203 194.537 59.457 A 24.141 24.141 0 0 1 191 59.702 C 182.1 59.702 176.4 55.502 176.2 48.702 Z M 105.7 68.602 L 105.7 49.802 A 28.325 28.325 0 0 0 105.458 45.869 C 104.84 41.488 102.992 39.051 99.391 37.473 A 18.928 18.928 0 0 0 97.6 36.802 A 14.944 14.944 0 0 0 107.294 24.325 A 20.467 20.467 0 0 0 107.5 21.402 A 18.797 18.797 0 0 0 102.562 8.335 C 99.934 5.531 96.351 3.538 92.045 2.677 A 25.207 25.207 0 0 0 87.1 2.202 L 53.4 2.202 L 53.4 68.602 L 66.9 68.602 L 66.9 42.602 L 81.7 42.602 C 89.7 42.602 92.1 45.102 92.1 51.502 L 92.1 68.602 L 105.7 68.602 Z M 143.2 68.602 L 143.2 13.802 L 163.3 13.802 L 163.3 2.202 L 109.3 2.202 L 109.3 13.802 L 129.3 13.802 L 129.3 68.602 L 143.2 68.602 Z M 13.9 68.602 L 13.9 44.502 L 29.3 44.502 A 23.836 23.836 0 0 0 39.308 42.449 C 45.85 39.443 49.927 33.358 50.524 25.686 A 25.57 25.57 0 0 0 50.6 23.702 C 50.6 13.037 44.045 4.347 33.46 2.545 A 24.77 24.77 0 0 0 29.3 2.202 L 0 2.202 L 0 68.602 L 13.9 68.602 Z M 84.3 31.402 L 66.9 31.402 L 66.9 13.702 L 84.8 13.702 A 14.579 14.579 0 0 1 88.352 14.101 C 92.253 15.082 94.118 17.796 94.447 21.395 A 13.275 13.275 0 0 1 94.5 22.602 C 94.5 27.702 91.7 31.402 84.3 31.402 Z M 13.9 33.202 L 13.9 13.702 L 27.1 13.702 C 30.504 13.702 33.058 14.444 34.868 15.721 A 8.789 8.789 0 0 1 38.4 23.302 C 38.4 29.102 35.1 33.202 27.1 33.202 L 13.9 33.202 Z"
              vector-effect="non-scaling-stroke"/>
    </g>
</svg>